<?xml version="1.0" encoding="utf-8"?><svg xmlns="http://www.w3.org/2000/svg" viewBox="0 0 67.88 67.93"><defs><style>.cls-1{fill:#3d84fe;}</style></defs><title>Icon 2.1</title><g id="Layer_2" data-name="Layer 2"><g id="Layer_1-2" data-name="Layer 1"><g id="_100X100_Full_Icon_Set_-_Retrace_54_copy_2" data-name=" 100X100 Full Icon Set - Retrace 54 copy 2"><g id="Shape"><path class="cls-1" d="M33.93,67.93h0A36.07,36.07,0,0,1,30,67.72,2.66,2.66,0,0,1,27.74,65a6.62,6.62,0,0,0-4-6.48A5.93,5.93,0,0,0,21.32,58a7.22,7.22,0,0,0-5.08,2.13,2.54,2.54,0,0,1-1.89.85h0a2.66,2.66,0,0,1-1.63-.58A36.55,36.55,0,0,1,7.36,55a2.63,2.63,0,0,1,.28-3.53,6.69,6.69,0,0,0,2-3.45,6.57,6.57,0,0,0-4.94-7.87A6.62,6.62,0,0,0,3.28,40H3.05A2.93,2.93,0,0,1,.23,37.8l0-.12a35.4,35.4,0,0,1,0-7.7,2.5,2.5,0,0,1,2.69-2.3,7,7,0,0,0,6.48-4.06A6.57,6.57,0,0,0,7.72,16.2a2.55,2.55,0,0,1-.28-3.55,33.51,33.51,0,0,1,5.49-5.42,2.56,2.56,0,0,1,3.54.3,6.82,6.82,0,0,0,5.07,2.13,6.32,6.32,0,0,0,2.32-.43A6.56,6.56,0,0,0,28,2.89,2.6,2.6,0,0,1,30.24.21a34.94,34.94,0,0,1,7.65,0A2.66,2.66,0,0,1,40.19,3a6.63,6.63,0,0,0,4,6.48,6,6,0,0,0,2.39.47,7.17,7.17,0,0,0,5.07-2.13,2.55,2.55,0,0,1,3.53-.27,35.61,35.61,0,0,1,5.35,5.42,2.55,2.55,0,0,1-.3,3.55,6.65,6.65,0,0,0-1.95,3.43,6.57,6.57,0,0,0,6.37,8h.11a2.92,2.92,0,0,1,2.84,2.2l0,.11a47.91,47.91,0,0,1,.14,7.67,2.68,2.68,0,0,1-2.59,2.34h-.57A6.6,6.6,0,0,0,60.2,51.74a2.53,2.53,0,0,1,.28,3.54A33.51,33.51,0,0,1,55,60.7a2.55,2.55,0,0,1-3.54-.3,6.92,6.92,0,0,0-5-2.13h-.12a6.32,6.32,0,0,0-2.28.43A6.57,6.57,0,0,0,40,65a2.61,2.61,0,0,1-2.29,2.68A33.84,33.84,0,0,1,33.93,67.93ZM21.38,56.52a7.67,7.67,0,0,1,2.91.58,8.14,8.14,0,0,1,4.95,7.95,1.14,1.14,0,0,0,1,1.18,34.7,34.7,0,0,0,3.7.2,33.08,33.08,0,0,0,3.59-.2,1.1,1.1,0,0,0,1-1.13,8,8,0,0,1,5-7.79,7.43,7.43,0,0,1,2.87-.54,8.43,8.43,0,0,1,6.18,2.62,1.07,1.07,0,0,0,1.5.14,32.29,32.29,0,0,0,5.26-5.19,1.05,1.05,0,0,0-.11-1.48,8.09,8.09,0,0,1,5.42-14.1h.56a1.16,1.16,0,0,0,1.11-1,45.78,45.78,0,0,0-.14-7.3,1.42,1.42,0,0,0-1.36-1h-.13a8.09,8.09,0,0,1-7.83-9.87,8.32,8.32,0,0,1,2.41-4.22,1.05,1.05,0,0,0,.14-1.49,34.55,34.55,0,0,0-5.13-5.2,1.08,1.08,0,0,0-1.48.12,8.49,8.49,0,0,1-6.12,2.62h-.12a7.66,7.66,0,0,1-2.9-.58,8.14,8.14,0,0,1-5-7.95,1.15,1.15,0,0,0-1-1.18,32.91,32.91,0,0,0-7.29,0,1.1,1.1,0,0,0-1,1.13,8.07,8.07,0,0,1-5,7.8,8.16,8.16,0,0,1-2.88.53,8.32,8.32,0,0,1-6.17-2.62,1.08,1.08,0,0,0-1.5-.14A32.75,32.75,0,0,0,8.6,13.59a1.07,1.07,0,0,0,.12,1.49,8.08,8.08,0,0,1,2,9.15,8.36,8.36,0,0,1-7.91,4.94,1,1,0,0,0-1.14.94,34.73,34.73,0,0,0,0,7.35,1.46,1.46,0,0,0,1.42,1h.18A8.26,8.26,0,0,1,5,38.69a8.05,8.05,0,0,1,6.07,9.66,8.25,8.25,0,0,1-2.41,4.22,1.11,1.11,0,0,0-.12,1.51,34.21,34.21,0,0,0,5.11,5.17,1.17,1.17,0,0,0,.7.25,1,1,0,0,0,.77-.35,8.54,8.54,0,0,1,6.14-2.63ZM34,53.92h-.43a19.93,19.93,0,0,1,.33-39.85h0A19.93,19.93,0,0,1,53.79,34,20.16,20.16,0,0,1,51,44.24l-.49.83L41,35.6l.2-.47a11,11,0,0,0,.89-4.26,11.13,11.13,0,0,0-11-11,11.6,11.6,0,0,0-2.93.38.46.46,0,0,0-.26.15.59.59,0,0,0,0,.84c.21.21,4.19,4.19,5.52,5.58l.1.14A1.74,1.74,0,0,1,33.72,28a30.56,30.56,0,0,1-.62,4.23l-.05.22-.31.31-.35.18a30.69,30.69,0,0,1-4.25.63H28a1.71,1.71,0,0,1-1.14-.49c-1.26-1.26-4.56-4.5-5.3-5.23l-.14-.14a.63.63,0,0,0-.44-.19.56.56,0,0,0-.48.43,11.62,11.62,0,0,0-.37,2.79,11.06,11.06,0,0,0,11,11.12h0A10.55,10.55,0,0,0,35.33,41l.47-.21,9.52,9.53-.78.5A19.43,19.43,0,0,1,34,53.92ZM33.7,15.57a18.43,18.43,0,0,0-.15,36.85h.31A17.82,17.82,0,0,0,42.93,50l-7.48-7.48a12,12,0,0,1-4.37.82h0A12.56,12.56,0,0,1,18.58,30.75,13.17,13.17,0,0,1,19,27.62,2,2,0,0,1,20.92,26a2.14,2.14,0,0,1,1.51.63l.13.13c.75.73,4.05,4,5.31,5.24a.17.17,0,0,0,.12.05h.09a29.38,29.38,0,0,0,3.63-.52A31.55,31.55,0,0,0,32.23,28a.92.92,0,0,0,0-.19c-1.39-1.45-5.2-5.26-5.41-5.47a2.1,2.1,0,0,1,0-3,2,2,0,0,1,.93-.53,12.87,12.87,0,0,1,3.32-.43,12.45,12.45,0,0,1,11.7,16.89l7.38,7.37A18.71,18.71,0,0,0,52.29,34,18.43,18.43,0,0,0,33.91,15.57H33.7Z"/></g><g id="Path"><path class="cls-1" d="M33.94,53.65a19.79,19.79,0,1,1,0-39.57h.93A20.05,20.05,0,0,1,53.78,33.92v1A19.13,19.13,0,0,1,51,44.18l-.49.81-9.4-9.4.2-.47a10.66,10.66,0,0,0,.9-4.25,11,11,0,0,0-3.25-7.76,10.83,10.83,0,0,0-7.71-3.25h-.1a11.24,11.24,0,0,0-2.89.38.58.58,0,0,0-.42.42.54.54,0,0,0,.14.56s4.15,4.23,5.51,5.58l.12.15A1.76,1.76,0,0,1,33.79,28a26.92,26.92,0,0,1-.63,4.24l0,.21-.31.31-.35.18a34,34,0,0,1-4.25.63H28a1.67,1.67,0,0,1-1.13-.48c-1.43-1.44-5.44-5.38-5.44-5.38a.59.59,0,0,0-.31-.18.55.55,0,0,0-.39.08.52.52,0,0,0-.22.33,11.07,11.07,0,0,0,2.86,10.68,10.81,10.81,0,0,0,7.7,3.25h.06A10.78,10.78,0,0,0,35.4,41l.47-.2,9.33,9.4-.81.5A20.3,20.3,0,0,1,33.94,53.65Zm0-38.07a18.29,18.29,0,1,0,0,36.57,18.61,18.61,0,0,0,8.85-2.27l-7.26-7.31a12.54,12.54,0,0,1-4.37.82,12.32,12.32,0,0,1-8.84-3.7,12.53,12.53,0,0,1-3.25-12.07,2,2,0,0,1,.85-1.24,2,2,0,0,1,2.6.31h0s4,3.93,5.42,5.35a.18.18,0,0,0,.12.05h.1a31.1,31.1,0,0,0,3.63-.52A27.68,27.68,0,0,0,32.3,28a.87.87,0,0,0,0-.18c-1.45-1.45-5.42-5.48-5.42-5.48a2.05,2.05,0,0,1-.53-2,2.09,2.09,0,0,1,1.48-1.47,12.89,12.89,0,0,1,3.33-.43h.06A12.3,12.3,0,0,1,40,22.06a12.45,12.45,0,0,1,3.69,8.82,12.32,12.32,0,0,1-.82,4.37l7.32,7.32a18,18,0,0,0,2.13-7.66v-1A18.54,18.54,0,0,0,34.8,15.58Z"/></g></g><path class="cls-1" d="M46.43,48.48a.73.73,0,0,1-.53-.22l-.51-.51a.75.75,0,0,1,1.06-1.06l.51.51a.75.75,0,0,1,0,1.06A.74.74,0,0,1,46.43,48.48Zm-3.34-3.34a.74.74,0,0,1-.53-.22L39.74,42.1A.75.75,0,1,1,40.8,41l2.82,2.82a.74.74,0,0,1,0,1.06A.71.71,0,0,1,43.09,45.14ZM29.9,40h0a8.8,8.8,0,0,1-4.15-1.19.76.76,0,0,1-.25-1,.74.74,0,0,1,1-.25,7.23,7.23,0,0,0,3.45,1,.75.75,0,0,1,0,1.5Zm4-.41a.76.76,0,0,1-.16-1.49,23.25,23.25,0,0,0,2.75-.82l.45-.16L38,38.21a.75.75,0,0,1-1.06,1.06l-.4-.4c-.86.29-1.69.53-2.48.72ZM23.46,36a.76.76,0,0,1-.67-.41,10.65,10.65,0,0,1-1.09-4.17.75.75,0,1,1,1.5,0,9.36,9.36,0,0,0,.93,3.54.74.74,0,0,1-.33,1A.68.68,0,0,1,23.46,36Z"/></g></g></svg>