<?xml version="1.0" encoding="utf-8"?><svg xmlns="http://www.w3.org/2000/svg" viewBox="0 0 78.76 63.31"><defs><style>.cls-1{fill:#3d84fe;}.cls-2,.cls-3{fill:none;stroke:#3d84fe;stroke-linecap:round;stroke-miterlimit:10;stroke-width:1.5px;}.cls-3{stroke-dasharray:4 4 4 4 4 4;}</style></defs><title>ROI</title><g id="Layer_2" data-name="Layer 2"><g id="Layer_1-2" data-name="Layer 1"><path class="cls-1" d="M39.39,63.31A29.58,29.58,0,0,1,15.76,51.62l-.39-.51,6.74-6.93.52.75a20.25,20.25,0,0,0,37-10.63H52a1.62,1.62,0,0,1-1.16-2.75L63.42,18.66a1.62,1.62,0,0,1,2.32,0L78.3,31.55a1.62,1.62,0,0,1-1.16,2.75h-8A29.8,29.8,0,0,1,39.39,63.31Zm-22-12.09a28.25,28.25,0,0,0,50.3-17.67V32.8h9.77L64.59,19.62,51.75,32.8h9.4v.75a21.76,21.76,0,0,1-39.23,13Z"/><path class="cls-1" d="M12.69,44,.43,30.78a1.6,1.6,0,0,1,1.22-2.69l7.84.19A29.75,29.75,0,0,1,62.41,11.14l.43.53L56,18.38l-.52-.69A20.25,20.25,0,0,0,19,28.51l7.81.19a1.61,1.61,0,0,1,1.08,2.76L15,44.06A1.61,1.61,0,0,1,12.69,44ZM1.36,29.58,13.87,43.07,27,30.21,17.44,30l0-.75A21.75,21.75,0,0,1,56.14,16.11l4.67-4.56A28.26,28.26,0,0,0,11,29.07l0,.75Z"/><path class="cls-2" d="M32.42,37.86c.24,2.74,3.34,5,7.16,5s7.16-2.39,7.16-5.37c0-4.41-5.85-5.13-7.16-5.36s-7.16-1-7.16-5.37c0-3,3.22-5.37,7.16-5.37s6.92,2.27,7.16,5"/><line class="cls-2" x1="39.58" y1="17.47" x2="39.58" y2="46.69"/><path class="cls-3" d="M6.81,32.08h6.93S11.71,14.49,31.09,5"/><path class="cls-3" d="M72.11,30.37l-6.92.23s2.62,17.51-16.42,27.66"/></g></g></svg>