<?xml version="1.0" encoding="utf-8"?><svg xmlns="http://www.w3.org/2000/svg" viewBox="0 0 69.48 59.14"><defs><style>.cls-1,.cls-2,.cls-3,.cls-4,.cls-5,.cls-6{fill:none;stroke:#3d84fe;stroke-width:1.5px;}.cls-1,.cls-5{stroke-linecap:round;}.cls-1,.cls-2,.cls-3,.cls-4,.cls-6{stroke-miterlimit:10;}.cls-3{stroke-dasharray:5.57 5.57;}.cls-4{stroke-dasharray:4.13 4.13;}.cls-5{stroke-linejoin:round;}.cls-6{opacity:0.2;isolation:isolate;}</style></defs><title>Icon 1</title><g id="Layer_2" data-name="Layer 2"><g id="Layer_1-2" data-name="Layer 1"><g id="Group_20" data-name="Group 20"><g id="Group_16" data-name="Group 16"><g id="Group_15" data-name="Group 15"><path id="Path_1" data-name="Path 1" class="cls-1" d="M67.34,47.42H2.14A1.4,1.4,0,0,1,.75,46V2.14A1.39,1.39,0,0,1,2.14.75h65.2a1.39,1.39,0,0,1,1.39,1.39V46A1.4,1.4,0,0,1,67.34,47.42Z"/><rect id="Rectangle_6" data-name="Rectangle 6" class="cls-1" x="4.77" y="4.92" width="59.72" height="32.64"/><circle id="Ellipse_1" data-name="Ellipse 1" class="cls-1" cx="34.7" cy="42.49" r="2.29"/><line id="Line_1" data-name="Line 1" class="cls-1" x1="27.48" y1="47.97" x2="22.13" y2="58.39"/><line id="Line_2" data-name="Line 2" class="cls-1" x1="41.79" y1="47.97" x2="47.2" y2="58.39"/><line id="Line_3" data-name="Line 3" class="cls-1" x1="17.97" y1="58.39" x2="51.3" y2="58.39"/></g></g><g id="Group_19" data-name="Group 19"><g id="Group_18" data-name="Group 18"><g id="Group_17" data-name="Group 17"><line id="Line_4" data-name="Line 4" class="cls-2" x1="19.57" y1="19.57" x2="19.57" y2="17.14"/><path id="Path_2" data-name="Path 2" class="cls-2" d="M19.57,12.35V9.92H22"/><line id="Line_5" data-name="Line 5" class="cls-3" x1="25.88" y1="9.92" x2="39.36" y2="9.92"/><path id="Path_3" data-name="Path 3" class="cls-2" d="M41.3,9.92h2.43v2.43"/><line id="Line_6" data-name="Line 6" class="cls-4" x1="43.73" y1="15.19" x2="43.73" y2="19.5"/><path id="Path_4" data-name="Path 4" class="cls-2" d="M43.73,20.89v2.43H41.3"/><line id="Line_7" data-name="Line 7" class="cls-2" x1="37.62" y1="23.32" x2="35.19" y2="23.32"/></g></g><rect id="Rectangle_7" data-name="Rectangle 7" class="cls-2" x="10.82" y="19.57" width="24.17" height="13.47"/><path id="Path_5" data-name="Path 5" class="cls-1" d="M35.05,27.9,29.7,22.56,19.15,33h15.9Z"/><path id="Path_6" data-name="Path 6" class="cls-2" d="M14.36,33l6.32-6.32,2.43,2.43-4,3.89Z"/><circle id="Ellipse_2" data-name="Ellipse 2" class="cls-5" cx="17.13" cy="23.6" r="1.53"/><circle id="Ellipse_3" data-name="Ellipse 3" class="cls-6" cx="17.13" cy="23.6" r="1.53"/></g><path id="Path_7" data-name="Path 7" class="cls-5" d="M48.52,21.1l-.41-3.61,3.4,1.11L61,30.26l-3,2.43Z"/></g></g></g></svg>