<?xml version="1.0" encoding="utf-8"?><svg xmlns="http://www.w3.org/2000/svg" xmlns:xlink="http://www.w3.org/1999/xlink" viewBox="0 0 143.01 29.01"><defs><style>.cls-1{fill:none;}.cls-2{clip-path:url(#clip-path);}.cls-3{fill:#fff;}</style><clipPath id="clip-path"><rect class="cls-1" y="0.01" width="143" height="29"/></clipPath></defs><title>Logo</title><g id="Layer_2" data-name="Layer 2"><g id="Layer_1-2" data-name="Layer 1"><g class="cls-2"><g id="Logo_White" data-name="Logo White"><rect id="Background" class="cls-1" y="0.01" width="143" height="29"/><path id="Logo.svg_Copy" data-name="Logo.svg Copy" class="cls-3" d="M8.72,29a.48.48,0,0,1-.28-.1.46.46,0,0,1-.16-.34V.44A.42.42,0,0,1,8.44.11.4.4,0,0,1,8.79,0L27.07,2.94a.42.42,0,0,1,.37.42V25.41a.42.42,0,0,1-.36.42L8.8,29ZM11.78,3.66a.46.46,0,0,0-.29.11.44.44,0,0,0-.15.32V25.2a.44.44,0,0,0,.44.43h.06l12.9-1.8a.43.43,0,0,0,.38-.43V5.68a.44.44,0,0,0-.38-.43L11.84,3.67ZM121,28.94a10.86,10.86,0,0,1-4.51-1.07.45.45,0,0,1-.22-.56l.57-1.33a.42.42,0,0,1,.25-.24.41.41,0,0,1,.16,0,.39.39,0,0,1,.18,0,8.52,8.52,0,0,0,3.55.8,4.53,4.53,0,0,0,3-1,3.72,3.72,0,0,0,1.27-2.9v-.88A5.28,5.28,0,0,1,121,23.79h-.14a6.19,6.19,0,0,1-4.68-1.93,7.15,7.15,0,0,1-1.78-5,7.22,7.22,0,0,1,1.82-5,6.33,6.33,0,0,1,4.69-2h.12a5.44,5.44,0,0,1,4.27,2.1V10.79a.46.46,0,0,1,.16-.34.56.56,0,0,1,.28-.1h.09l1.78.37a.45.45,0,0,1,.35.43V21.72a7.19,7.19,0,0,1-2,5.47,7.12,7.12,0,0,1-5,1.75Zm.26-16.56c-2.36,0-4,1.84-4,4.47s1.66,4.48,4,4.48a3.76,3.76,0,0,0,2.91-1.26,4.83,4.83,0,0,0,1.09-3.21A4.66,4.66,0,0,0,124,13.49a3.85,3.85,0,0,0-2.78-1.11ZM88,28.93H86a.44.44,0,0,1-.44-.43V10.79a.44.44,0,0,1,.16-.34.45.45,0,0,1,.28-.1h.09l1.78.37a.45.45,0,0,1,.35.42V12a5.4,5.4,0,0,1,4.24-2.08h.1a6.42,6.42,0,0,1,4.73,1.95,7.09,7.09,0,0,1,1.85,5,7.28,7.28,0,0,1-1.75,5,6.08,6.08,0,0,1-4.65,1.94h-.15a5.34,5.34,0,0,1-4.22-2.06V28.5A.44.44,0,0,1,88,28.93ZM92.3,12.38a3.7,3.7,0,0,0-2.93,1.31,4.79,4.79,0,0,0-1.07,3.14,4.78,4.78,0,0,0,1.17,3.33,3.89,3.89,0,0,0,2.86,1.18c2.36,0,4-1.86,4-4.51S94.68,12.38,92.3,12.38ZM4.58,26.62a.51.51,0,0,1-.29-.1.46.46,0,0,1-.15-.33V2.57a.44.44,0,0,1,.15-.32.4.4,0,0,1,.29-.1h.07l1.41.18a.43.43,0,0,1,.38.43V26a.44.44,0,0,1-.38.42l-1.42.2ZM.44,24.4a.44.44,0,0,1-.29-.11A.44.44,0,0,1,0,24V4.69a.41.41,0,0,1,.15-.32.44.44,0,0,1,.29-.11h0l1.41.15a.43.43,0,0,1,.39.43v19a.44.44,0,0,1-.39.43l-1.41.15Zm56.22-.6a5.32,5.32,0,0,1-4.38-2.3.44.44,0,0,1,.1-.58l1.09-.85a.44.44,0,0,1,.62.07,3.57,3.57,0,0,0,2.84,1.37h.13c1.25,0,2.06-.64,2.06-1.64s-1.18-1.53-2.56-2.05c-1.87-.71-4-1.52-4-4.15a3.36,3.36,0,0,1,1.34-2.74,5.29,5.29,0,0,1,3.29-1h.21a4.78,4.78,0,0,1,4,2.09.42.42,0,0,1-.13.59h0l-1.23.8a.45.45,0,0,1-.25.07.41.41,0,0,1-.34-.16,2.86,2.86,0,0,0-2.29-1.14H57c-1.08,0-1.8.58-1.8,1.44,0,1.07,1.18,1.5,2.55,2a9.84,9.84,0,0,1,2.71,1.31,3.39,3.39,0,0,1,1.32,2.83,3.67,3.67,0,0,1-1.4,2.94,5.51,5.51,0,0,1-3.48,1.1ZM77,23.8h-.29a5.6,5.6,0,0,1-3.61-1.2,4.14,4.14,0,0,1-.5-5.85,3.55,3.55,0,0,1,.47-.48A5.77,5.77,0,0,1,76.87,15h.23a5.08,5.08,0,0,1,3,1V14.76c0-1.52-1.08-2.43-2.87-2.43a7.87,7.87,0,0,0-3.4.84.44.44,0,0,1-.58-.17l-.67-1.19a.44.44,0,0,1,.17-.59,9.73,9.73,0,0,1,4.77-1.3c3.56,0,5.37,1.69,5.37,5V23a.44.44,0,0,1-.44.43H80.78a.44.44,0,0,1-.43-.33l-.15-.65A4.46,4.46,0,0,1,77,23.8ZM77.31,17c-1.67,0-2.84.93-2.84,2.27s1.18,2.28,2.86,2.28,2.85-.94,2.85-2.28a2,2,0,0,0-.8-1.66A3.26,3.26,0,0,0,77.31,17ZM136.6,23.8a6.66,6.66,0,0,1-4.68-1.91,6.59,6.59,0,0,1-2-5,7.2,7.2,0,0,1,1.9-5,6.4,6.4,0,0,1,4.66-2,6.27,6.27,0,0,1,4.78,1.9,7.23,7.23,0,0,1,1.7,5v.27a.43.43,0,0,1-.44.41h-9.74a3.89,3.89,0,0,0,3.9,3.89h.39a4.49,4.49,0,0,0,3.36-1.52.45.45,0,0,1,.6-.08l1.18.87a.42.42,0,0,1,.1.59,6.53,6.53,0,0,1-5.16,2.54h-.59Zm-.13-11.57a3.56,3.56,0,0,0-2.46,1,3.5,3.5,0,0,0-1.08,2.41h7.21a3.39,3.39,0,0,0-3.41-3.4h-.26ZM106.25,23.8H106a5.63,5.63,0,0,1-3.61-1.2,4,4,0,0,1-1.47-3.2c0-2.56,2.14-4.35,5.22-4.35h.22a5.1,5.1,0,0,1,3,1V14.76c0-1.52-1.07-2.43-2.86-2.43a7.83,7.83,0,0,0-3.4.84.43.43,0,0,1-.58-.17l-.67-1.19a.44.44,0,0,1,.16-.59h0a9.72,9.72,0,0,1,4.76-1.3c3.57,0,5.38,1.69,5.38,5V23a.44.44,0,0,1-.44.43H110a.44.44,0,0,1-.43-.33l-.15-.65A4.5,4.5,0,0,1,106.25,23.8Zm.28-6.77c-1.68,0-2.85.94-2.85,2.28s1.18,2.28,2.87,2.28,2.84-.94,2.84-2.28a2,2,0,0,0-.79-1.66,3.33,3.33,0,0,0-2.07-.62Zm-37.81,6.6h0a3.76,3.76,0,0,1-3.36-1.48,6.74,6.74,0,0,1-.9-3.9V12.53H63.37a.42.42,0,0,1-.31-.13.43.43,0,0,1-.13-.3V10.69a.44.44,0,0,1,.44-.43h1.06V8a.46.46,0,0,1,.16-.34.48.48,0,0,1,.28-.1H65l1.9.38a.44.44,0,0,1,.36.42v1.85h2.3a.46.46,0,0,1,.31.13.44.44,0,0,1,.13.31v1.4a.44.44,0,0,1-.44.44h-2.3v6.14c0,2.1.84,2.5,2.3,2.5h.26a.34.34,0,0,1,.28.35v1.63a.44.44,0,0,1-.4.44c-.31,0-.63,0-.94,0ZM49.8,23.46H47.9a.44.44,0,0,1-.44-.43V15.29a2.63,2.63,0,0,0-.7-2,2.69,2.69,0,0,0-1.94-.83h-.14a2.92,2.92,0,0,0-2.1.89,2.86,2.86,0,0,0-.78,2.19V23a.44.44,0,0,1-.44.43H39.42A.44.44,0,0,1,39,23V10.69a.44.44,0,0,1,.13-.31.47.47,0,0,1,.31-.12H41.3a.43.43,0,0,1,.31.12.44.44,0,0,1,.13.31V12a4.39,4.39,0,0,1,3.73-2.05h.07a4.21,4.21,0,0,1,3.66,1.71,6.66,6.66,0,0,1,1,3.88V23A.44.44,0,0,1,49.8,23.46Zm-14.48,0h-2A.44.44,0,0,1,32.9,23V5.44a.46.46,0,0,1,.16-.34.48.48,0,0,1,.28-.1h.09l2,.38a.46.46,0,0,1,.36.43V23a.44.44,0,0,1-.44.43Z"/></g></g></g></g></svg>