<?xml version="1.0" encoding="utf-8"?>
<!-- Generator: Adobe Illustrator 23.0.4, SVG Export Plug-In . SVG Version: 6.00 Build 0)  -->
<svg version="1.1" id="Layer_1" xmlns="http://www.w3.org/2000/svg" xmlns:xlink="http://www.w3.org/1999/xlink" x="0px" y="0px"
	 viewBox="0 0 143 29" style="enable-background:new 0 0 143 29;" xml:space="preserve">
<style type="text/css">
	.st0{fill:none;}
	.st1{fill:#273245;}
</style>
<g>
	<rect x="0" y="0" class="st0" width="143" height="29"/>
	<rect id="Background" x="0" y="0" class="st0" width="143" height="29"/>
	<path id="Logo.svg_Copy" class="st1" d="M8.7,29c-0.1,0-0.2,0-0.3-0.1c-0.1-0.1-0.2-0.2-0.2-0.3V0.4c0-0.1,0.1-0.3,0.2-0.3
		C8.6,0,8.7,0,8.8,0l18.3,2.9c0.2,0,0.4,0.2,0.4,0.4v22c0,0.2-0.2,0.4-0.4,0.4L8.7,29L8.7,29z M11.8,3.7c-0.1,0-0.2,0-0.3,0.1
		c-0.1,0.1-0.1,0.2-0.1,0.3v21.1c0,0.2,0.2,0.4,0.4,0.4h0.1l12.9-1.8c0.2,0,0.4-0.2,0.4-0.4V5.7c0-0.2-0.2-0.4-0.4-0.4L11.8,3.7
		L11.8,3.7z M121,28.9c-1.6,0-3.1-0.4-4.5-1.1c-0.2-0.1-0.3-0.3-0.2-0.6l0.6-1.3c0-0.1,0.1-0.2,0.2-0.2c0.1,0,0.1,0,0.2,0
		c0.1,0,0.1,0,0.2,0c1.1,0.5,2.3,0.8,3.6,0.8c1.1,0,2.2-0.3,3-1c0.8-0.7,1.3-1.8,1.3-2.9v-0.9c-1,1.3-2.6,2.1-4.2,2h-0.1
		c-1.8,0.1-3.5-0.6-4.7-1.9c-1.2-1.4-1.9-3.2-1.8-5c-0.1-1.8,0.6-3.6,1.8-5c1.2-1.3,2.9-2,4.7-2h0.1c1.7,0,3.2,0.8,4.3,2.1v-1.2
		c0-0.1,0.1-0.3,0.2-0.3c0.1-0.1,0.2-0.1,0.3-0.1h0.1l1.8,0.4c0.2,0,0.3,0.2,0.3,0.4v10.6c0.1,2-0.6,4-2,5.5
		C124.6,28.4,122.8,29,121,28.9L121,28.9z M121.3,12.4c-2.4,0-4,1.8-4,4.5s1.7,4.5,4,4.5c1.1,0,2.2-0.4,2.9-1.3
		c0.7-0.9,1.1-2,1.1-3.2c0-1.2-0.4-2.5-1.3-3.4C123.3,12.8,122.3,12.4,121.3,12.4L121.3,12.4z M88,28.9h-2c-0.2,0-0.4-0.2-0.4-0.4
		V10.8c0-0.1,0.1-0.3,0.2-0.3c0.1-0.1,0.2-0.1,0.3-0.1h0.1l1.8,0.4c0.2,0,0.3,0.2,0.3,0.4V12c1-1.3,2.6-2.1,4.2-2.1h0.1
		c1.8,0,3.5,0.7,4.7,1.9c1.2,1.4,1.9,3.2,1.8,5c0.1,1.8-0.6,3.6-1.8,5c-1.2,1.3-2.9,2-4.7,1.9h-0.2c-1.6,0-3.2-0.8-4.2-2.1v6.8
		C88.4,28.7,88.2,28.9,88,28.9z M92.3,12.4c-1.1,0-2.2,0.5-2.9,1.3c-0.7,0.9-1.1,2-1.1,3.1c0,1.2,0.4,2.4,1.2,3.3
		c0.7,0.8,1.8,1.2,2.9,1.2c2.4,0,4-1.9,4-4.5S94.7,12.4,92.3,12.4z M4.6,26.6c-0.1,0-0.2,0-0.3-0.1c-0.1-0.1-0.1-0.2-0.2-0.3V2.6
		c0-0.1,0.1-0.2,0.2-0.3c0.1-0.1,0.2-0.1,0.3-0.1h0.1l1.4,0.2c0.2,0,0.4,0.2,0.4,0.4V26c0,0.2-0.2,0.4-0.4,0.4L4.6,26.6L4.6,26.6z
		 M0.5,24.4c-0.1,0-0.2,0-0.3-0.1C0.1,24.2,0,24.1,0,24V4.7c0-0.1,0.1-0.2,0.2-0.3c0.1-0.1,0.2-0.1,0.3-0.1l0,0l1.4,0.2
		c0.2,0,0.4,0.2,0.4,0.4v19c0,0.2-0.2,0.4-0.4,0.4L0.5,24.4L0.5,24.4z M56.7,23.8c-1.7,0-3.4-0.9-4.4-2.3c-0.1-0.2-0.1-0.4,0.1-0.6
		l1.1-0.9c0.2-0.2,0.5-0.1,0.6,0.1c0,0,0,0,0,0c0.7,0.9,1.7,1.4,2.8,1.4h0.1c1.2,0,2.1-0.6,2.1-1.6s-1.2-1.5-2.6-2
		c-1.9-0.7-4-1.5-4-4.1c0-1.1,0.5-2.1,1.3-2.7c1-0.7,2.1-1,3.3-1h0.2c1.6,0,3.1,0.8,4,2.1c0.1,0.2,0.1,0.5-0.1,0.6c0,0,0,0,0,0l0,0
		l-1.2,0.8c-0.1,0-0.2,0.1-0.2,0.1c-0.1,0-0.3-0.1-0.3-0.2c-0.5-0.7-1.4-1.1-2.3-1.1H57c-1.1,0-1.8,0.6-1.8,1.4c0,1.1,1.2,1.5,2.5,2
		c1,0.3,1.9,0.7,2.7,1.3c0.9,0.7,1.4,1.7,1.3,2.8c0,1.1-0.5,2.2-1.4,2.9c-1,0.8-2.2,1.1-3.5,1.1L56.7,23.8z M77,23.8h-0.3
		c-1.3,0-2.6-0.4-3.6-1.2c-1.8-1.5-2-4.1-0.5-5.8c0,0,0,0,0,0c0.1-0.2,0.3-0.3,0.5-0.5c1.1-0.9,2.4-1.3,3.8-1.3h0.2
		c1.1,0,2.1,0.4,3,1v-1.2c0-1.5-1.1-2.4-2.9-2.4c-1.2,0-2.3,0.3-3.4,0.8c-0.2,0.1-0.5,0-0.6-0.2l-0.7-1.2c-0.1-0.2,0-0.5,0.2-0.6
		c1.5-0.8,3.1-1.3,4.8-1.3c3.6,0,5.4,1.7,5.4,5V23c0,0.2-0.2,0.4-0.4,0.4h-1.7c-0.2,0-0.4-0.1-0.4-0.3l-0.2-0.6
		C79.4,23.3,78.2,23.8,77,23.8z M77.3,17c-1.7,0-2.8,0.9-2.8,2.3s1.2,2.3,2.9,2.3s2.8-0.9,2.8-2.3c0-0.7-0.3-1.3-0.8-1.7
		C78.8,17.2,78.1,17,77.3,17z M136.6,23.8c-1.8,0-3.4-0.7-4.7-1.9c-1.3-1.3-2.1-3.1-2-5c0-1.8,0.6-3.6,1.9-5c1.2-1.3,2.9-2,4.7-2
		c1.8-0.1,3.5,0.6,4.8,1.9c1.2,1.4,1.8,3.2,1.7,5v0.3c0,0.2-0.2,0.4-0.4,0.4h-9.7c0,2.1,1.7,3.9,3.9,3.9c0,0,0,0,0,0h0.4
		c1.3,0,2.5-0.6,3.4-1.5c0.1-0.2,0.4-0.2,0.6-0.1l1.2,0.9c0.2,0.1,0.2,0.4,0.1,0.6c0,0,0,0,0,0c-1.2,1.6-3.1,2.5-5.2,2.5L136.6,23.8
		L136.6,23.8z M136.5,12.2c-0.9,0-1.8,0.4-2.5,1c-0.7,0.6-1,1.5-1.1,2.4h7.2c0-1.9-1.5-3.4-3.4-3.4c0,0,0,0,0,0L136.5,12.2
		L136.5,12.2z M106.3,23.8H106c-1.3,0-2.6-0.4-3.6-1.2c-1-0.8-1.5-2-1.5-3.2c0-2.6,2.1-4.3,5.2-4.3h0.2c1.1,0,2.1,0.4,3,1v-1.3
		c0-1.5-1.1-2.4-2.9-2.4c-1.2,0-2.3,0.3-3.4,0.8c-0.2,0.1-0.5,0-0.6-0.2l-0.7-1.2c-0.1-0.2,0-0.5,0.2-0.6l0,0
		c1.4-0.8,3.1-1.3,4.8-1.3c3.6,0,5.4,1.7,5.4,5V23c0,0.2-0.2,0.4-0.4,0.4H110c-0.2,0-0.4-0.1-0.4-0.3l-0.2-0.6
		C108.6,23.3,107.5,23.8,106.3,23.8z M106.6,17c-1.7,0-2.8,0.9-2.8,2.3s1.2,2.3,2.9,2.3s2.8-0.9,2.8-2.3c0-0.6-0.3-1.3-0.8-1.7
		C108,17.2,107.3,17,106.6,17z M68.7,23.6L68.7,23.6c-1.3,0.1-2.6-0.4-3.4-1.5c-0.7-1.2-1-2.5-0.9-3.9v-5.7h-1.1
		c-0.1,0-0.2,0-0.3-0.1C63,12.3,63,12.2,63,12.1v-1.4c0-0.2,0.2-0.4,0.4-0.4h1.1V8c0-0.1,0.1-0.3,0.2-0.3c0.1-0.1,0.2-0.1,0.3-0.1
		H65l1.9,0.4c0.2,0,0.4,0.2,0.4,0.4v1.9h2.3c0.1,0,0.2,0,0.3,0.1c0.1,0.1,0.1,0.2,0.1,0.3v1.4c0,0.2-0.2,0.4-0.4,0.4l0,0h-2.3v6.1
		c0,2.1,0.8,2.5,2.3,2.5h0.3c0.2,0,0.3,0.2,0.3,0.4v1.6c0,0.2-0.2,0.4-0.4,0.4C69.4,23.6,69.1,23.6,68.7,23.6L68.7,23.6z M49.8,23.5
		h-1.9c-0.2,0-0.4-0.2-0.4-0.4v-7.7c0.1-0.7-0.2-1.5-0.7-2c-0.5-0.5-1.2-0.8-1.9-0.8h-0.1c-0.8,0-1.5,0.3-2.1,0.9
		c-0.6,0.6-0.8,1.4-0.8,2.2V23c0,0.2-0.2,0.4-0.4,0.4h-1.9c-0.2,0-0.4-0.2-0.4-0.4V10.7c0-0.1,0-0.2,0.1-0.3
		c0.1-0.1,0.2-0.1,0.3-0.1h1.9c0.1,0,0.2,0,0.3,0.1c0.1,0.1,0.1,0.2,0.1,0.3V12c0.8-1.3,2.2-2.1,3.7-2.1h0.1
		c1.4-0.1,2.8,0.6,3.7,1.7c0.7,1.2,1.1,2.5,1,3.9V23C50.2,23.2,50.1,23.4,49.8,23.5z M35.3,23.5h-2c-0.2,0-0.4-0.2-0.4-0.5
		c0,0,0,0,0,0V5.4c0-0.1,0.1-0.3,0.2-0.3C33.2,5,33.3,5,33.4,5h0.1l2,0.4c0.2,0,0.4,0.2,0.4,0.4V23C35.8,23.2,35.6,23.4,35.3,23.5
		L35.3,23.5z"/>
</g>
</svg>
