<?xml version="1.0" encoding="utf-8"?>
<svg version="1.1" id="Layer_1" x="0px" y="0px" viewBox="5.498 9.374 785.893 264.202" style="enable-background:new 0 0 800 384;" width="89px" height="30px" preserveAspectRatio="none" xmlns="http://www.w3.org/2000/svg">
  <style type="text/css">
	.st0{clip-path:url(#SVGID_2_);fill:#007DC1;}
</style>
  <g transform="matrix(4.794955, 0, 0, 4.794955, -1523.613037, -780.355591)">
    <defs>
      <rect id="SVGID_1_" x="318.5" y="164.5" width="164.7" height="55.5"/>
    </defs>
    <clipPath id="SVGID_2_">
      <rect id="" x="318.5" y="164.5" width="164.7" height="55.5" transform="matrix(1, 0, 0, 1, 0, 0)" style="overflow: visible;"/>
    </clipPath>
    <path class="st0" d="M339.5,178.5c-11.4,0-20.6,9.2-20.6,20.6c0,11.4,9.2,20.6,20.6,20.6s20.6-9.2,20.6-20.6&#10;&#9;&#9;C360.2,187.7,350.9,178.5,339.5,178.5 M339.5,209.4c-5.7,0-10.3-4.6-10.3-10.3c0-5.7,4.6-10.3,10.3-10.3c5.7,0,10.3,4.6,10.3,10.3&#10;&#9;&#9;C349.8,204.8,345.2,209.4,339.5,209.4" style="fill: rgb(188, 206, 214);"/>
    <path class="st0" d="M375.7,206c0-1.6,2-2.4,3.1-1.3c5.1,5.3,13.7,14.2,13.7,14.3c0.1,0.1,0.2,0.3,0.7,0.5c0.2,0.1,0.5,0.1,0.9,0.1&#10;&#9;&#9;l9.3,0c1.7,0,2.2-1.9,1.4-2.9l-15.4-15.8l-0.8-0.8c-1.8-2.1-1.6-2.9,0.4-5l12.2-13.6c0.8-1,0.3-2.9-1.4-2.9h-8.4&#10;&#9;&#9;c-0.3,0-0.6,0-0.8,0.1c-0.5,0.1-0.7,0.3-0.8,0.5c-0.1,0-6.8,7.3-11,11.8c-1.1,1.2-3.2,0.4-3.2-1.2l0-23.3c0-1.2-1-1.6-1.8-1.6h-6.9&#10;&#9;&#9;c-1.2,0-1.8,0.8-1.8,1.5V218c0,1.2,1,1.5,1.8,1.5h6.9c1.1,0,1.8-0.8,1.8-1.6v-0.5V206z" style="fill: rgb(188, 206, 214);"/>
    <path class="st0" d="M432,217.7l-0.7-6.9c-0.1-0.9-1-1.6-1.9-1.4c-0.5,0.1-1.1,0.1-1.6,0.1c-5.5,0-10-4.3-10.3-9.7&#10;&#9;&#9;c0-0.2,0-0.4,0-0.6v-8.4c0-1.1,0.8-2,1.9-2l9.2,0c0.7,0,1.6-0.6,1.6-1.8v-6.5c0-1.2-0.8-1.9-1.5-1.9h-9.3c-1.1,0-1.9-0.8-1.9-1.9&#10;&#9;&#9;l0-10.4c0-0.6-0.5-1.6-1.8-1.6h-6.9c-0.9,0-1.7,0.5-1.7,1.6c0,0,0,33.3,0,33.5c0.3,11.1,9.4,20,20.6,20c0.9,0,1.9-0.1,2.8-0.2&#10;&#9;&#9;C431.4,219.5,432.1,218.7,432,217.7" style="fill: rgb(188, 206, 214);"/>
    <path class="st0" d="M481.6,209.1c-5.8,0-6.7-2.1-6.7-9.9c0,0,0,0,0-0.1l0-18.8c0-0.6-0.5-1.7-1.8-1.7h-6.9c-0.9,0-1.8,0.7-1.8,1.7&#10;&#9;&#9;l0,0.9c-3-1.7-6.5-2.7-10.2-2.7c-11.4,0-20.6,9.2-20.6,20.6s9.2,20.6,20.6,20.6c5.1,0,9.8-1.9,13.4-4.9c1.9,2.9,5.1,4.9,9.9,4.9&#10;&#9;&#9;c0.8,0,5.2,0.1,5.2-1.9v-7.3C482.8,209.8,482.3,209.1,481.6,209.1 M454.3,209.4c-5.7,0-10.3-4.6-10.3-10.3&#10;&#9;&#9;c0-5.7,4.6-10.3,10.3-10.3c5.7,0,10.3,4.6,10.3,10.3C464.6,204.8,460,209.4,454.3,209.4" style="fill: rgb(188, 206, 214);"/>
  </g>
</svg>