<?xml version="1.0" encoding="utf-8"?><svg xmlns="http://www.w3.org/2000/svg" viewBox="0 0 137.38 115.86"><defs><style>.cls-1{fill:#bcced6;}</style></defs><title>Asset 2</title><g id="Layer_2" data-name="Layer 2"><g id="Layer_1-2" data-name="Layer 1"><path class="cls-1" d="M64.06,88q0,12.81-8.36,20.33t-21.16,7.52q-15,0-24.79-10T0,76.31Q0,57.94,5.29,44.84A85.85,85.85,0,0,1,18.1,22.56,76.6,76.6,0,0,1,33.7,7.8,65.62,65.62,0,0,1,47.9,0L61.83,19.5A53.77,53.77,0,0,0,42.05,35.93q-7.51,10.31-7.51,25.9a26.32,26.32,0,0,1,6.12-.56q11.15,0,17.27,7.8T64.06,88Zm73.32,0q0,12.81-8.36,20.33t-21.16,7.52q-15,0-24.79-10T73.32,76.31q0-18.37,5.3-31.47a85.55,85.55,0,0,1,12.8-22.28A76.6,76.6,0,0,1,107,7.8,65.62,65.62,0,0,1,121.22,0l13.93,19.5a53.74,53.74,0,0,0-19.77,16.43q-7.53,10.31-7.52,25.9a26.38,26.38,0,0,1,6.12-.56q11.14,0,17.27,7.8T137.38,88Z"/></g></g></svg>